<?xml version="1.0" encoding="UTF-8"?>
<svg version="1.1" xmlns="http://www.w3.org/2000/svg" width="512" height="512">
<path d="M0 0 C4.52335939 3.98149423 8.74434455 8.23692173 12.97705078 12.52294922 C14.24858541 13.79561403 15.52100523 15.06739496 16.79423523 16.33836365 C20.22609903 19.76908605 23.6455424 23.2119457 27.0627923 26.65721655 C30.64433991 30.2638738 34.23731929 33.85910672 37.82907104 37.45559692 C44.61895898 44.25788658 51.39859112 51.07030239 58.17454517 57.88646901 C65.89340511 65.650134 73.62370994 73.40236048 81.35496926 81.15367484 C97.24936069 97.08980708 113.1294164 113.0401602 129 129 C132.87437611 127.41080212 135.30578451 124.93022357 138.23513794 121.97845459 C138.75011113 121.46236799 139.26508432 120.94628138 139.79566276 120.41455579 C141.51976609 118.68438155 143.23660603 116.94717529 144.95361328 115.20996094 C146.18873352 113.96772769 147.42432581 112.72596363 148.66035461 111.4846344 C151.32204978 108.80983512 153.98070296 106.13206077 156.63714981 103.45204926 C160.84289973 99.20969772 165.05734838 94.97606117 169.27340698 90.74395752 C181.26140081 78.70767832 193.2376987 66.65980199 205.20507812 54.60302734 C211.81416182 47.94472908 218.43050588 41.29373039 225.05461109 34.6503756 C229.24160261 30.45034466 233.41944067 26.24148409 237.59060979 22.02574205 C240.19702475 19.39574649 242.81188085 16.77426914 245.42911339 14.15504265 C246.63466295 12.94522379 247.8368001 11.73199265 249.03510094 10.51499367 C259.65160817 -0.26060736 270.13964761 -8.64818621 285.875 -9.4375 C301.75117976 -8.85604756 311.40254691 0.00484829 322.10058594 10.62011719 C323.61573767 12.11585634 325.15093416 13.58881154 326.6875 15.0625 C335.3796253 23.56832767 341.94735629 32.98125436 342.29296875 45.48193359 C342.4467665 61.86523888 335.69563306 71.25080533 324.56922364 82.66730165 C320.82435302 86.468083 317.0520703 90.24111257 313.27783203 94.01269531 C311.57821593 95.71830328 309.8790081 97.42431816 308.18017578 99.13070679 C304.06172766 103.26492629 299.9385781 107.39440954 295.81279697 111.52131036 C292.45733894 114.87772277 289.10347321 118.23571813 285.75069809 121.59481049 C276.22445501 131.13863475 266.69406344 140.67828813 257.15827371 150.21257392 C256.64568694 150.72508077 256.13310017 151.23758763 255.60498047 151.765625 C255.09176061 152.27876309 254.57854076 152.79190118 254.04976879 153.32058892 C245.72643324 161.64311096 237.41313071 169.97557566 229.1043029 178.3125793 C220.55286586 186.8927838 211.99395258 195.46546801 203.42725646 204.03043818 C198.62571739 208.83131502 193.82726702 213.63518564 189.03686905 218.4471817 C184.53294302 222.97050102 180.01947324 227.48407636 175.49858093 231.99043655 C173.84479211 233.64213803 172.19438846 235.29723726 170.54771042 236.95602798 C168.29246237 239.22678284 166.0251039 241.48474128 163.75442505 243.74005127 C163.11198542 244.39277803 162.46954579 245.04550478 161.80763829 245.71801114 C152.92869669 254.46546588 142.5742281 259.98909019 130 260.375 C116.16342404 259.95034805 105.62808603 253.26864391 96.1182251 243.61943054 C95.02757567 242.53708271 95.02757567 242.53708271 93.91489291 241.43286926 C91.50434473 239.03582945 89.10822412 236.62489009 86.71191406 234.21362305 C84.97718828 232.48268396 83.24160515 230.75260374 81.50523376 229.02331543 C77.29512972 224.82569332 73.09436684 220.61886762 68.89805898 216.40746506 C64.00337495 211.49585094 59.0985998 206.59436482 54.19357809 201.69307826 C45.43815722 192.94352537 36.69276619 184.18401474 27.95263672 175.41918945 C19.48557971 166.92821116 11.01015029 158.44570159 2.52587891 149.97192383 C-6.72976467 140.72770756 -15.98061729 131.4787448 -25.22333932 122.22160751 C-26.21019237 121.23322873 -27.1970481 120.24485264 -28.18390656 119.25647926 C-28.66935992 118.77026808 -29.15481329 118.2840569 -29.65497737 117.78311205 C-33.06459503 114.36876585 -36.47748045 110.95770736 -39.89159393 107.54785728 C-44.49205074 102.95286153 -49.08430216 98.34976371 -53.67123222 93.74126434 C-55.35285245 92.05409373 -57.03700481 90.36944245 -58.72390175 88.68754768 C-61.03168127 86.3857529 -63.32996797 84.07486691 -65.62615967 81.76152039 C-66.62275907 80.77393605 -66.62275907 80.77393605 -67.6394918 79.76640052 C-76.80912558 70.47241167 -82.2157993 61.34236458 -82.4375 48.125 C-82.31478276 31.61761386 -73.32988501 21.94533676 -62.27001953 10.84448242 C-60.75421641 9.31674959 -59.25813867 7.77130233 -57.76171875 6.22460938 C-41.13361616 -10.68022991 -19.88757077 -14.31387791 0 0 Z " fill="#CECED0" transform="translate(126,245)"/>
<path d="M0 0 C7.21665692 5.46593775 13.49476928 11.80196554 19.8594141 18.20722103 C21.11152715 19.4598992 22.36408268 20.71213521 23.6170435 21.96396542 C26.99486126 25.34121258 30.36650441 28.7245624 33.73702264 32.10909247 C37.26879796 35.65342422 40.80628979 39.19204135 44.34316349 42.73128414 C51.029881 49.42420203 57.71148662 56.12219887 64.3912434 62.82206303 C72.00039404 70.45361766 79.61526762 78.07945098 87.23061287 85.70482337 C102.88658511 101.38166493 118.53540332 117.06563094 134.17948246 132.75434017 C138.07390819 131.16035892 140.52088609 128.65143912 143.46604252 125.68810177 C143.98651039 125.16722605 144.50697827 124.64635032 145.0432179 124.10969049 C146.78580861 122.36336977 148.52114186 120.61001146 150.2566309 118.85663509 C151.504856 117.60293432 152.75354519 116.34969546 154.00266361 115.09688473 C156.69224773 112.3975868 159.3787412 109.69526272 162.06295872 106.99062824 C166.3105982 102.71117308 170.56638927 98.43988824 174.82358646 94.16994381 C185.39934739 83.56009387 195.96584316 72.94102927 206.52738285 62.31702328 C214.7303357 54.06557515 222.93647465 45.81735957 231.15323758 37.57966024 C235.38236447 33.339032 239.60445827 29.09156229 243.82136583 24.83878458 C246.45226716 22.18863302 249.08945968 19.54481118 251.72840977 16.90267658 C252.94681164 15.68026995 254.16263925 14.45529096 255.37561893 13.22750378 C265.81350176 2.66686972 275.18080427 -5.20177663 290.67948246 -5.62065983 C306.65760265 -5.18881874 316.16931643 3.20772225 327.17948246 13.75434017 C328.09729496 14.61930111 329.01510746 15.48426205 329.96073246 16.37543392 C335.1751525 21.40923399 339.65476977 26.39884261 343.17948246 32.75434017 C343.59198246 33.48781673 344.00448246 34.2212933 344.42948246 34.97699642 C348.82376526 44.11649434 348.6936302 55.3848152 345.42948246 64.87934017 C339.22079151 80.30251691 323.47775381 92.60939127 311.94291019 104.15204525 C310.33172937 105.7678649 308.72074242 107.3838779 307.1099329 109.00006771 C302.76751505 113.3554988 298.42186064 117.70768566 294.07516456 122.05884671 C291.35472683 124.78222985 288.63487101 127.50619286 285.91518688 130.23032856 C278.36324454 137.794353 270.81045937 145.35753211 263.25417328 152.91721725 C262.53229242 153.63942746 262.53229242 153.63942746 261.79582811 154.37622778 C261.31354538 154.85872878 260.83126266 155.34122978 260.33436531 155.83835202 C259.35736178 156.81579899 258.38035982 157.79324751 257.40335941 158.77069759 C256.9187516 159.25552684 256.43414378 159.74035609 255.93485088 160.23987713 C248.07029479 168.10838744 240.21252713 175.98364007 232.3576275 183.86178903 C224.2652144 191.97795868 216.16702148 200.08831495 208.06343132 208.19332713 C203.52462436 212.73317989 198.988258 217.27540778 194.45789242 221.82368565 C190.20037919 226.09770895 185.93572407 230.36447578 181.66557026 234.6258688 C180.10456447 236.18610612 178.54609755 237.74888856 176.99043941 239.31445789 C153.09540258 263.35272731 153.09540258 263.35272731 135.17948246 264.25434017 C118.24912927 263.37626675 106.97004643 253.01629269 95.58670902 241.51801205 C94.58231411 240.51441045 93.57726358 239.51146464 92.57161808 238.50911617 C89.87290482 235.81548208 87.18351308 233.11272139 84.49597359 230.40794468 C81.66570561 227.56249678 78.82719089 224.72529665 75.98972416 221.8870306 C71.23071242 217.1243416 66.47734363 212.35608239 61.7278223 207.58393002 C55.6500697 201.47727471 49.56305857 195.37993627 43.47306538 189.28549099 C38.21010267 184.01853456 32.95139682 178.74733369 27.69337082 173.47544956 C26.01550492 171.79350683 24.33706917 170.11213438 22.65855503 168.43083858 C20.0130405 165.78039175 17.37021116 163.12729407 14.72935772 160.47220325 C13.30941633 159.0456613 11.88712725 157.62145734 10.46474552 156.19734859 C6.02213732 151.72525596 1.71502567 147.20800841 -2.35050488 142.38860989 C-3.97433851 140.50497664 -3.97433851 140.50497664 -6.82051754 138.25434017 C-9.15307966 136.31053841 -10.82640277 134.65074365 -12.73799801 132.36102962 C-17.34480323 127.0377724 -22.37995318 122.16229643 -27.40838146 117.24413776 C-30.4107892 114.30346056 -33.39728309 111.34665767 -36.38692379 108.39301205 C-40.16872283 104.65902731 -43.95489644 100.92978581 -47.7565527 97.21601009 C-50.85125363 94.19201878 -53.93069386 91.1531869 -57.00087261 88.10431004 C-58.16353115 86.95512701 -59.33154966 85.8113378 -60.50524426 84.67342854 C-70.401812 75.07059566 -76.85431673 65.87624461 -77.13301754 51.69184017 C-77.21305145 33.41076235 -65.08846616 22.1461286 -53.13301754 9.87934017 C-39.23466116 -3.77215375 -18.01740524 -12.32811957 0 0 Z " fill="#FDFDFD" transform="translate(120.82051753997803,12.245659828186035)"/>
<path d="M0 0 C4.52335939 3.98149423 8.74434455 8.23692173 12.97705078 12.52294922 C14.24858541 13.79561403 15.52100523 15.06739496 16.79423523 16.33836365 C20.22609903 19.76908605 23.6455424 23.2119457 27.0627923 26.65721655 C30.64433991 30.2638738 34.23731929 33.85910672 37.82907104 37.45559692 C44.61895898 44.25788658 51.39859112 51.07030239 58.17454517 57.88646901 C65.89340511 65.650134 73.62370994 73.40236048 81.35496926 81.15367484 C97.24936069 97.08980708 113.1294164 113.0401602 129 129 C132.87437611 127.41080212 135.30578451 124.93022357 138.23513794 121.97845459 C138.75011113 121.46236799 139.26508432 120.94628138 139.79566276 120.41455579 C141.51976609 118.68438155 143.23660603 116.94717529 144.95361328 115.20996094 C146.18873352 113.96772769 147.42432581 112.72596363 148.66035461 111.4846344 C151.32204978 108.80983512 153.98070296 106.13206077 156.63714981 103.45204926 C160.84289973 99.20969772 165.05734838 94.97606117 169.27340698 90.74395752 C181.26140081 78.70767832 193.2376987 66.65980199 205.20507812 54.60302734 C211.81416182 47.94472908 218.43050588 41.29373039 225.05461109 34.6503756 C229.24160261 30.45034466 233.41944067 26.24148409 237.59060979 22.02574205 C240.19702475 19.39574649 242.81188085 16.77426914 245.42911339 14.15504265 C246.63466295 12.94522379 247.8368001 11.73199265 249.03510094 10.51499367 C259.65160817 -0.26060736 270.13964761 -8.64818621 285.875 -9.4375 C301.75117976 -8.85604756 311.40254691 0.00484829 322.10058594 10.62011719 C323.61573767 12.11585634 325.15093416 13.58881154 326.6875 15.0625 C335.3796253 23.56832767 341.94735629 32.98125436 342.29296875 45.48193359 C342.4467665 61.86523888 335.69563306 71.25080533 324.56922364 82.66730165 C320.82435302 86.468083 317.0520703 90.24111257 313.27783203 94.01269531 C311.57821593 95.71830328 309.8790081 97.42431816 308.18017578 99.13070679 C304.06172766 103.26492629 299.9385781 107.39440954 295.81279697 111.52131036 C292.45733894 114.87772277 289.10347321 118.23571813 285.75069809 121.59481049 C276.22445501 131.13863475 266.69406344 140.67828813 257.15827371 150.21257392 C256.64568694 150.72508077 256.13310017 151.23758763 255.60498047 151.765625 C255.09176061 152.27876309 254.57854076 152.79190118 254.04976879 153.32058892 C245.72643324 161.64311096 237.41313071 169.97557566 229.1043029 178.3125793 C220.55286586 186.8927838 211.99395258 195.46546801 203.42725646 204.03043818 C198.62571739 208.83131502 193.82726702 213.63518564 189.03686905 218.4471817 C184.53294302 222.97050102 180.01947324 227.48407636 175.49858093 231.99043655 C173.84479211 233.64213803 172.19438846 235.29723726 170.54771042 236.95602798 C168.29246237 239.22678284 166.0251039 241.48474128 163.75442505 243.74005127 C163.11198542 244.39277803 162.46954579 245.04550478 161.80763829 245.71801114 C152.92869669 254.46546588 142.5742281 259.98909019 130 260.375 C116.16342404 259.95034805 105.62808603 253.26864391 96.1182251 243.61943054 C95.02757567 242.53708271 95.02757567 242.53708271 93.91489291 241.43286926 C91.50434473 239.03582945 89.10822412 236.62489009 86.71191406 234.21362305 C84.97718828 232.48268396 83.24160515 230.75260374 81.50523376 229.02331543 C77.29512972 224.82569332 73.09436684 220.61886762 68.89805898 216.40746506 C64.00337495 211.49585094 59.0985998 206.59436482 54.19357809 201.69307826 C45.43815722 192.94352537 36.69276619 184.18401474 27.95263672 175.41918945 C19.48557971 166.92821116 11.01015029 158.44570159 2.52587891 149.97192383 C-6.72976467 140.72770756 -15.98061729 131.4787448 -25.22333932 122.22160751 C-26.21019237 121.23322873 -27.1970481 120.24485264 -28.18390656 119.25647926 C-28.66935992 118.77026808 -29.15481329 118.2840569 -29.65497737 117.78311205 C-33.06459503 114.36876585 -36.47748045 110.95770736 -39.89159393 107.54785728 C-44.49205074 102.95286153 -49.08430216 98.34976371 -53.67123222 93.74126434 C-55.35285245 92.05409373 -57.03700481 90.36944245 -58.72390175 88.68754768 C-61.03168127 86.3857529 -63.32996797 84.07486691 -65.62615967 81.76152039 C-66.62275907 80.77393605 -66.62275907 80.77393605 -67.6394918 79.76640052 C-76.80912558 70.47241167 -82.2157993 61.34236458 -82.4375 48.125 C-82.31478276 31.61761386 -73.32988501 21.94533676 -62.27001953 10.84448242 C-60.75421641 9.31674959 -59.25813867 7.77130233 -57.76171875 6.22460938 C-41.13361616 -10.68022991 -19.88757077 -14.31387791 0 0 Z M-49.69262695 21.22607422 C-51.31396388 22.87649014 -52.95329586 24.50729785 -54.59570312 26.13671875 C-55.64434705 27.19159823 -56.69191148 28.24755216 -57.73828125 29.3046875 C-58.22267166 29.78614227 -58.70706207 30.26759705 -59.20613098 30.76364136 C-64.05966672 35.75264437 -66.43187205 40.33790131 -66.5 47.3125 C-66.5309375 48.36050781 -66.561875 49.40851563 -66.59375 50.48828125 C-65.17719056 58.86648475 -59.65376691 64.93380408 -53.78437805 70.73028564 C-53.06845637 71.45315285 -52.35253469 72.17602006 -51.61491841 72.92079234 C-49.23094207 75.32295853 -46.83303955 77.71069839 -44.43481445 80.09863281 C-42.71551207 81.82499763 -40.9970532 83.55220287 -39.27937317 85.28018188 C-35.1061685 89.47352275 -30.92365582 93.65743006 -26.73630057 97.83662894 C-23.33114567 101.23546791 -19.9297523 104.63802881 -16.53096581 108.04323578 C-16.04606691 108.52903633 -15.56116801 109.01483689 -15.0615752 109.51535867 C-14.07632258 110.50246261 -13.09107558 111.48957217 -12.10583415 112.47668728 C-2.87976044 121.71931546 6.35888986 130.94929052 15.6016709 140.17520675 C24.04559072 148.60443098 32.47475908 157.04822859 40.89690139 165.49920741 C49.55925105 174.19099324 58.23081883 182.87347887 66.91266662 191.54579043 C67.89575405 192.52785539 68.87882756 193.50993428 69.86188698 194.49202728 C70.34548833 194.97515224 70.82908967 195.4582772 71.32734561 195.9560423 C74.7233758 199.34991398 78.11340343 202.74971 81.50104332 206.15195465 C86.06691255 210.73723426 90.64588123 215.30916461 95.23373604 219.87244797 C96.9125698 221.54628066 98.58718346 223.22435874 100.257164 224.90702438 C102.54318168 227.20902419 104.84417733 229.49496429 107.14945984 231.77764893 C107.80172773 232.44175254 108.45399561 233.10585616 109.12602919 233.79008412 C114.90224888 239.45239384 121.7089651 244.15299306 130 244.625 C139.4279028 244.0876533 146.54275724 238.19989819 152.89523315 231.73295593 C153.62374391 231.01153957 154.35225466 230.2901232 155.1028415 229.54684573 C157.52047996 227.14669131 159.91998686 224.7292223 162.31982422 222.3112793 C164.05758859 220.57865726 165.7964223 218.84710718 167.53623962 217.11654663 C171.75566827 212.91368166 175.96332975 208.6993653 180.16546445 204.47923359 C183.58212378 201.04851097 187.0038595 197.62292772 190.42923355 194.20090675 C191.16232727 193.46852919 191.16232727 193.46852919 191.91023097 192.72135613 C192.90328728 191.72932621 193.89635807 190.73731078 194.88944317 189.74530969 C203.65597578 180.98733057 212.40986612 172.21682127 221.15722656 163.43969727 C229.63550259 154.93257387 238.12458886 146.43642208 246.625 137.95141602 C255.89502473 128.69816826 265.1586253 119.43857284 274.41151631 110.16818935 C275.39889309 109.17896829 276.38627464 108.189752 277.37366104 107.20054054 C277.85939583 106.71389366 278.34513063 106.22724678 278.84558465 105.72585302 C282.26123203 102.30461058 285.68130175 98.88782796 289.10305405 95.47269249 C293.71080928 90.87349467 298.30766981 86.26359982 302.89744759 81.64645004 C304.58225647 79.95476104 306.27046338 78.26644836 307.9623127 76.58180046 C310.27315413 74.27966323 312.57129352 71.96553881 314.8666687 69.647995 C315.87200663 68.65501822 315.87200663 68.65501822 316.89765441 67.6419813 C322.64413043 61.79283782 326.57294088 55.93623457 326.5625 47.5 C326.59537109 45.93765625 326.59537109 45.93765625 326.62890625 44.34375 C324.91852018 35.25002035 317.50521688 29.00623429 311.18066406 22.73461914 C309.62279001 21.18530215 308.08458796 19.61812786 306.546875 18.04882812 C305.54540234 17.04574403 304.54283444 16.04375198 303.5390625 15.04296875 C302.64396973 14.14602295 301.74887695 13.24907715 300.82666016 12.32495117 C295.69540141 8.10444875 290.39141011 6.25918681 283.73012543 6.64076614 C272.4884115 8.11996714 264.92152488 17.40492156 257.41210938 25.03613281 C256.07507908 26.37621477 254.73693359 27.71518486 253.39776611 29.0531311 C249.78384307 32.66987772 246.1854355 36.30170934 242.58956718 39.93639469 C238.82020002 43.74086233 235.03615284 47.5306703 231.25354004 51.32196045 C224.09943863 58.49672397 216.95775683 65.68371249 209.82086039 72.87558627 C199.32874611 83.44748546 188.81891408 94.00174845 178.30796051 104.55491257 C176.75889476 106.11023601 175.20983011 107.66556055 173.6607666 109.22088623 C172.90479895 109.9798516 172.1488313 110.73881696 171.36995554 111.52078128 C166.8691805 116.04026534 162.37234926 120.56362856 157.87892056 125.09041643 C155.0919311 127.89754963 152.30306959 130.70281809 149.51387787 133.50776291 C148.21730956 134.81262105 146.92162919 136.11836215 145.62688446 137.42502975 C143.86561252 139.20237913 142.10133726 140.97669252 140.33630371 142.75030518 C139.81978162 143.2731507 139.30325953 143.79599623 138.77108526 144.33468556 C135.67760056 147.43533688 134.16659625 148.86058019 129.75126457 149.38825607 C125.06349539 148.90307173 123.09621315 147.04966607 119.97976685 143.78790283 C119.41660574 143.22719487 118.85344463 142.66648691 118.27321804 142.08878779 C116.39180449 140.20719613 114.53656467 138.30176899 112.68017578 136.39550781 C111.3357028 135.04087361 109.98964326 133.68781249 108.64212036 132.33621216 C105.74377887 129.42251987 102.85676195 126.4982019 99.97793961 123.56522369 C95.42296927 118.92513881 90.84249138 114.31080971 86.25802612 109.69989014 C77.35336518 100.73679125 68.47497255 91.74792864 59.59928894 82.75614929 C48.31137779 71.32288858 37.01212671 59.90094656 25.68865192 48.50290179 C21.13709352 43.91963452 16.59878357 39.32375866 12.07049203 34.71750689 C9.24592178 31.84915473 6.41099996 28.9912021 3.57331467 26.13582993 C2.26319999 24.81319786 0.95742517 23.4862501 -0.34355164 22.15462875 C-10.46110365 11.69515045 -10.46110365 11.69515045 -23.78515625 6.46875 C-24.91244141 6.48421875 -24.91244141 6.48421875 -26.0625 6.5 C-26.81660156 6.4896875 -27.57070312 6.479375 -28.34765625 6.46875 C-37.58054412 8.31804713 -43.36550588 14.7747787 -49.69262695 21.22607422 Z " fill="#3E3E3E" transform="translate(126,245)"/>
<path d="M0 0 C7.21665692 5.46593775 13.49476928 11.80196554 19.8594141 18.20722103 C21.11152715 19.4598992 22.36408268 20.71213521 23.6170435 21.96396542 C26.99486126 25.34121258 30.36650441 28.7245624 33.73702264 32.10909247 C37.26879796 35.65342422 40.80628979 39.19204135 44.34316349 42.73128414 C51.029881 49.42420203 57.71148662 56.12219887 64.3912434 62.82206303 C72.00039404 70.45361766 79.61526762 78.07945098 87.23061287 85.70482337 C102.88658511 101.38166493 118.53540332 117.06563094 134.17948246 132.75434017 C138.07390819 131.16035892 140.52088609 128.65143912 143.46604252 125.68810177 C143.98651039 125.16722605 144.50697827 124.64635032 145.0432179 124.10969049 C146.78580861 122.36336977 148.52114186 120.61001146 150.2566309 118.85663509 C151.504856 117.60293432 152.75354519 116.34969546 154.00266361 115.09688473 C156.69224773 112.3975868 159.3787412 109.69526272 162.06295872 106.99062824 C166.3105982 102.71117308 170.56638927 98.43988824 174.82358646 94.16994381 C185.39934739 83.56009387 195.96584316 72.94102927 206.52738285 62.31702328 C214.7303357 54.06557515 222.93647465 45.81735957 231.15323758 37.57966024 C235.38236447 33.339032 239.60445827 29.09156229 243.82136583 24.83878458 C246.45226716 22.18863302 249.08945968 19.54481118 251.72840977 16.90267658 C252.94681164 15.68026995 254.16263925 14.45529096 255.37561893 13.22750378 C265.81350176 2.66686972 275.18080427 -5.20177663 290.67948246 -5.62065983 C306.65760265 -5.18881874 316.16931643 3.20772225 327.17948246 13.75434017 C328.09729496 14.61930111 329.01510746 15.48426205 329.96073246 16.37543392 C335.1751525 21.40923399 339.65476977 26.39884261 343.17948246 32.75434017 C343.59198246 33.48781673 344.00448246 34.2212933 344.42948246 34.97699642 C348.82376526 44.11649434 348.6936302 55.3848152 345.42948246 64.87934017 C339.22079151 80.30251691 323.47775381 92.60939127 311.94291019 104.15204525 C310.33172937 105.7678649 308.72074242 107.3838779 307.1099329 109.00006771 C302.76751505 113.3554988 298.42186064 117.70768566 294.07516456 122.05884671 C291.35472683 124.78222985 288.63487101 127.50619286 285.91518688 130.23032856 C278.36324454 137.794353 270.81045937 145.35753211 263.25417328 152.91721725 C262.53229242 153.63942746 262.53229242 153.63942746 261.79582811 154.37622778 C261.31354538 154.85872878 260.83126266 155.34122978 260.33436531 155.83835202 C259.35736178 156.81579899 258.38035982 157.79324751 257.40335941 158.77069759 C256.9187516 159.25552684 256.43414378 159.74035609 255.93485088 160.23987713 C248.07029479 168.10838744 240.21252713 175.98364007 232.3576275 183.86178903 C224.2652144 191.97795868 216.16702148 200.08831495 208.06343132 208.19332713 C203.52462436 212.73317989 198.988258 217.27540778 194.45789242 221.82368565 C190.20037919 226.09770895 185.93572407 230.36447578 181.66557026 234.6258688 C180.10456447 236.18610612 178.54609755 237.74888856 176.99043941 239.31445789 C153.09540258 263.35272731 153.09540258 263.35272731 135.17948246 264.25434017 C118.24912927 263.37626675 106.97004643 253.01629269 95.58670902 241.51801205 C94.58231411 240.51441045 93.57726358 239.51146464 92.57161808 238.50911617 C89.87290482 235.81548208 87.18351308 233.11272139 84.49597359 230.40794468 C81.66570561 227.56249678 78.82719089 224.72529665 75.98972416 221.8870306 C71.23071242 217.1243416 66.47734363 212.35608239 61.7278223 207.58393002 C55.6500697 201.47727471 49.56305857 195.37993627 43.47306538 189.28549099 C38.21010267 184.01853456 32.95139682 178.74733369 27.69337082 173.47544956 C26.01550492 171.79350683 24.33706917 170.11213438 22.65855503 168.43083858 C20.0130405 165.78039175 17.37021116 163.12729407 14.72935772 160.47220325 C13.30941633 159.0456613 11.88712725 157.62145734 10.46474552 156.19734859 C6.02213732 151.72525596 1.71502567 147.20800841 -2.35050488 142.38860989 C-3.97433851 140.50497664 -3.97433851 140.50497664 -6.82051754 138.25434017 C-9.15307966 136.31053841 -10.82640277 134.65074365 -12.73799801 132.36102962 C-17.34480323 127.0377724 -22.37995318 122.16229643 -27.40838146 117.24413776 C-30.4107892 114.30346056 -33.39728309 111.34665767 -36.38692379 108.39301205 C-40.16872283 104.65902731 -43.95489644 100.92978581 -47.7565527 97.21601009 C-50.85125363 94.19201878 -53.93069386 91.1531869 -57.00087261 88.10431004 C-58.16353115 86.95512701 -59.33154966 85.8113378 -60.50524426 84.67342854 C-70.401812 75.07059566 -76.85431673 65.87624461 -77.13301754 51.69184017 C-77.21305145 33.41076235 -65.08846616 22.1461286 -53.13301754 9.87934017 C-39.23466116 -3.77215375 -18.01740524 -12.32811957 0 0 Z M-42.82051754 22.75434017 C-43.93717368 23.80959024 -45.05438695 24.86425098 -46.17208004 25.91840267 C-55.33564947 34.66884978 -61.2614472 41.03054669 -61.58223629 54.25043392 C-59.7144355 62.84231756 -53.64731243 69.51797323 -47.53365231 75.53568172 C-46.82222104 76.25194182 -46.11078978 76.96820192 -45.37779999 77.70616686 C-43.01521449 80.0799343 -40.63873158 82.4392537 -38.26192379 84.79877377 C-36.55566572 86.50717985 -34.85027443 88.216452 -33.14568233 89.92652035 C-29.00914611 94.0717182 -24.86346802 98.20759924 -20.71332812 102.33917396 C-15.87558719 107.1560564 -11.04840909 111.98346772 -6.22157347 116.81127377 C2.39185683 125.4257032 11.01488255 134.03046269 19.64334965 142.62982845 C28.00804094 150.96632283 36.36567267 159.30981125 44.71561527 167.66107845 C45.23038374 168.17592684 45.74515221 168.69077522 46.27551973 169.22122507 C46.78941652 169.73520257 47.30331332 170.24918008 47.83278275 170.77873266 C57.35435289 180.30168351 66.88249128 189.81803839 76.41369909 199.33134257 C79.7787682 202.69038884 83.14189088 206.05137644 86.50440311 209.41298199 C91.03022926 213.93729903 95.56163027 218.45598612 100.09674549 222.97099209 C101.76011632 224.6285233 103.4218029 226.28774667 105.08167744 227.94877911 C107.34739963 230.2154836 109.6191775 232.47594031 111.89261723 234.73490047 C112.87580008 235.72272914 112.87580008 235.72272914 113.87884521 236.73051393 C120.44029505 243.22308836 125.54930232 246.85888168 134.99198246 247.00434017 C151.5297481 246.74437529 163.67290697 229.41942267 174.65726566 218.45355892 C176.30559882 216.81150135 177.95411771 215.16963021 179.60280704 213.52793026 C184.98217537 208.16945455 190.35634136 202.80577659 195.73026371 197.44184017 C197.58685639 195.589299 199.4434818 193.73679062 201.30013943 191.88431454 C209.02044493 184.18084776 216.73965037 176.47628233 224.4551754 168.76802731 C226.44896149 166.77615061 228.4427531 164.78427944 230.43656254 162.79242611 C230.93201925 162.29745314 231.42747597 161.80248016 231.93794652 161.29250801 C239.97791414 153.26085468 248.02637476 145.23776842 256.07838211 137.21818721 C264.36582851 128.96384151 272.64569743 120.70195602 280.91820687 112.43264008 C285.55511688 107.79807878 290.19526355 103.16687197 294.84356976 98.54373837 C299.21165371 94.19893398 303.57011739 89.8447048 307.92143536 85.48311138 C309.51710936 83.88694209 311.11619496 82.29417475 312.71896839 80.70513439 C314.91124213 78.53059519 317.09073282 76.34397369 319.26757145 74.15399837 C319.89986536 73.53267371 320.53215927 72.91134905 321.1836136 72.27119637 C326.92763959 66.4434879 331.89937471 59.79281163 331.86698246 51.31684017 C331.89147465 50.30750423 331.91596684 49.2981683 331.94120121 48.25824642 C329.82759504 38.53565803 322.63833659 31.60854264 315.74198246 24.87934017 C314.51125004 23.63797298 314.51125004 23.63797298 313.25565434 22.37152767 C306.40028214 15.58728065 300.35736395 10.74220601 290.42948246 10.44184017 C289.23065434 10.38576595 289.23065434 10.38576595 288.00760746 10.32855892 C281.02928665 11.37916247 275.83051911 15.51255167 271.02985477 20.42967892 C270.46498383 20.99183772 269.90011289 21.55399653 269.31812465 22.13319045 C267.4447385 24.00236016 265.58594881 25.88537649 263.72684574 27.76874447 C262.3800425 29.11831553 261.03234708 30.46699674 259.68383121 31.81485653 C256.03694113 35.46486181 252.40242823 39.12697078 248.76990843 42.79127002 C244.96533873 46.62462468 241.14898513 50.4462095 237.33374882 54.26894283 C230.11432248 61.50594408 222.90473147 68.75265715 215.69899833 76.00329 C205.10838423 86.65918331 194.50497948 97.30233761 183.89920712 107.94314194 C183.12233646 108.72258201 182.3454658 109.50202208 181.5450536 110.30508155 C179.99667238 111.85855975 178.44825872 113.41200562 176.89981163 114.96541816 C172.35760505 119.52290838 167.81896768 124.08391626 163.28333688 128.64795053 C160.46908229 131.47917242 157.65291107 134.30848255 154.83634853 137.13740826 C153.52688663 138.45355743 152.21830763 139.77058568 150.91065884 141.08853626 C149.13177007 142.88127522 147.34987472 144.67097102 145.56720829 146.45995235 C145.04543101 146.98737095 144.52365374 147.51478955 143.98606503 148.05819052 C141.19274474 150.85430105 139.48139458 152.50635691 135.55448246 153.25434017 C126.26588131 151.87825111 117.87426532 139.54642765 111.38871098 132.99774837 C110.11176816 131.71232508 108.83455949 130.42716585 107.55710697 129.14224911 C104.81951033 126.38801133 102.08331056 123.63239601 99.34806347 120.87582493 C95.01863085 116.51362323 90.68311295 112.15750429 86.34621525 107.80272579 C85.61245767 107.06588175 84.87870009 106.3290377 84.12270743 105.56986505 C82.62311299 104.06396362 81.12350991 102.55807079 79.62389839 101.05218637 C69.53748767 90.92284778 59.45565325 80.78902026 49.38822269 70.64081478 C42.58289902 63.78098421 35.76869854 56.93010859 28.94423336 50.08931893 C25.33845142 46.47417746 21.73738051 42.85460735 18.14719677 39.22396946 C14.77209116 35.81093677 11.38543361 32.40980598 7.98969364 29.01730633 C6.74899143 27.77364174 5.51255234 26.52570658 4.28084469 25.27313328 C-6.23954347 14.43967778 -6.23954347 14.43967778 -20.38301754 10.31684017 C-30.39225857 10.90561906 -35.83723524 15.92754599 -42.82051754 22.75434017 Z " fill="#3D3D3D" transform="translate(120.82051753997803,12.245659828186035)"/>
</svg>
